<?xml version="1.0" encoding="us-ascii" standalone="no"?><svg xmlns="http://www.w3.org/2000/svg" xmlns:xlink="http://www.w3.org/1999/xlink" contentStyleType="text/css" height="440px" preserveAspectRatio="none" style="width:619px;height:440px;background:#FFFFFF;" version="1.1" viewBox="0 0 619 440" width="619px" zoomAndPan="magnify"><defs/><g><!--class e01--><g id="elem_e01"><rect codeLine="9" fill="#FFFFFF" height="91.1875" id="e01" rx="2.5" ry="2.5" style="stroke:#000000;stroke-width:1.0;" width="138" x="263.5" y="12"/><text fill="#000000" font-family="Verdana" font-size="14" lengthAdjust="spacing" textLength="49" x="308" y="29.9951">Vertex</text><line style="stroke:#000000;stroke-width:1.0;" x1="264.5" x2="400.5" y1="38.2969" y2="38.2969"/><ellipse cx="274.5" cy="51.9453" fill="#FFFFFF" rx="3" ry="3" style="stroke:#000000;stroke-width:1.0;"/><text fill="#000000" font-family="Verdana" font-size="14" lengthAdjust="spacing" textLength="82" x="281.5" y="55.292">id : number</text><line style="stroke:#000000;stroke-width:1.0;" x1="264.5" x2="400.5" y1="62.5938" y2="62.5938"/><text fill="#000000" font-family="Verdana" font-size="14" lengthAdjust="spacing" textLength="79" x="269.5" y="79.5889">label : text</text><text fill="#000000" font-family="Verdana" font-size="14" lengthAdjust="spacing" textLength="126" x="269.5" y="95.8857">description : text</text></g><!--class e02--><g id="elem_e02"><rect codeLine="16" fill="#FFFFFF" height="91.1875" id="e02" rx="2.5" ry="2.5" style="stroke:#000000;stroke-width:1.0;" width="174" x="245.5" y="169"/><text fill="#000000" font-family="Verdana" font-size="14" lengthAdjust="spacing" textLength="36" x="314.5" y="186.9951">Edge</text><line style="stroke:#000000;stroke-width:1.0;" x1="246.5" x2="418.5" y1="195.2969" y2="195.2969"/><ellipse cx="256.5" cy="208.9453" fill="#FFFFFF" rx="3" ry="3" style="stroke:#000000;stroke-width:1.0;"/><text fill="#000000" font-family="Verdana" font-size="14" lengthAdjust="spacing" textLength="110" x="263.5" y="212.292">src_id : number</text><ellipse cx="256.5" cy="225.2422" fill="#FFFFFF" rx="3" ry="3" style="stroke:#000000;stroke-width:1.0;"/><text fill="#000000" font-family="Verdana" font-size="14" lengthAdjust="spacing" textLength="150" x="263.5" y="228.5889">property_id: number</text><ellipse cx="256.5" cy="241.5391" fill="#FFFFFF" rx="3" ry="3" style="stroke:#000000;stroke-width:1.0;"/><text fill="#000000" font-family="Verdana" font-size="14" lengthAdjust="spacing" textLength="112" x="263.5" y="244.8857">dst_id : number</text><line style="stroke:#000000;stroke-width:1.0;" x1="246.5" x2="418.5" y1="252.1875" y2="252.1875"/></g><!--class e03--><g id="elem_e03"><rect codeLine="22" fill="#FFFFFF" height="107.4844" id="e03" rx="2.5" ry="2.5" style="stroke:#000000;stroke-width:1.0;" width="145" x="12" y="326"/><text fill="#000000" font-family="Verdana" font-size="14" lengthAdjust="spacing" textLength="80" x="44.5" y="343.9951">Coordinate</text><line style="stroke:#000000;stroke-width:1.0;" x1="13" x2="156" y1="352.2969" y2="352.2969"/><line style="stroke:#000000;stroke-width:1.0;" x1="13" x2="156" y1="360.2969" y2="360.2969"/><text fill="#000000" font-family="Verdana" font-size="14" lengthAdjust="spacing" textLength="121" x="18" y="377.292">latitude: number</text><text fill="#000000" font-family="Verdana" font-size="14" lengthAdjust="spacing" textLength="133" x="18" y="393.5889">longitude: number</text><text fill="#000000" font-family="Verdana" font-size="14" lengthAdjust="spacing" textLength="131" x="18" y="409.8857">precision: number</text><text fill="#000000" font-family="Verdana" font-size="14" lengthAdjust="spacing" textLength="126" x="18" y="426.1826">globe_id: number</text></g><!--class e04--><g id="elem_e04"><rect codeLine="30" fill="#FFFFFF" height="107.4844" id="e04" rx="2.5" ry="2.5" style="stroke:#000000;stroke-width:1.0;" width="172" x="172.5" y="326"/><text fill="#000000" font-family="Verdana" font-size="14" lengthAdjust="spacing" textLength="62" x="227.5" y="343.9951">Quantity</text><line style="stroke:#000000;stroke-width:1.0;" x1="173.5" x2="343.5" y1="352.2969" y2="352.2969"/><line style="stroke:#000000;stroke-width:1.0;" x1="173.5" x2="343.5" y1="360.2969" y2="360.2969"/><text fill="#000000" font-family="Verdana" font-size="14" lengthAdjust="spacing" textLength="120" x="178.5" y="377.292">amount: number</text><text fill="#000000" font-family="Verdana" font-size="14" lengthAdjust="spacing" textLength="156" x="178.5" y="393.5889">lower_bound: number</text><text fill="#000000" font-family="Verdana" font-size="14" lengthAdjust="spacing" textLength="160" x="178.5" y="409.8857">upper_bound: number</text><text fill="#000000" font-family="Verdana" font-size="14" lengthAdjust="spacing" textLength="113" x="178.5" y="426.1826">unit_id: number</text></g><!--class e05--><g id="elem_e05"><rect codeLine="38" fill="#FFFFFF" height="58.5938" id="e05" rx="2.5" ry="2.5" style="stroke:#000000;stroke-width:1.0;" width="94" x="359.5" y="350"/><text fill="#000000" font-family="Verdana" font-size="14" lengthAdjust="spacing" textLength="44" x="384.5" y="367.9951">String</text><line style="stroke:#000000;stroke-width:1.0;" x1="360.5" x2="452.5" y1="376.2969" y2="376.2969"/><line style="stroke:#000000;stroke-width:1.0;" x1="360.5" x2="452.5" y1="384.2969" y2="384.2969"/><text fill="#000000" font-family="Verdana" font-size="14" lengthAdjust="spacing" textLength="82" x="365.5" y="401.292">string: text</text></g><!--class e06--><g id="elem_e06"><rect codeLine="43" fill="#FFFFFF" height="74.8906" id="e06" rx="2.5" ry="2.5" style="stroke:#000000;stroke-width:1.0;" width="143" x="469" y="342"/><text fill="#000000" font-family="Verdana" font-size="14" lengthAdjust="spacing" textLength="36" x="522.5" y="359.9951">Time</text><line style="stroke:#000000;stroke-width:1.0;" x1="470" x2="611" y1="368.2969" y2="368.2969"/><line style="stroke:#000000;stroke-width:1.0;" x1="470" x2="611" y1="376.2969" y2="376.2969"/><text fill="#000000" font-family="Verdana" font-size="14" lengthAdjust="spacing" textLength="117" x="475" y="393.292">time: date_time</text><text fill="#000000" font-family="Verdana" font-size="14" lengthAdjust="spacing" textLength="131" x="475" y="409.5889">precision: number</text></g><!--link e01 to e02--><g id="link_e01_e02"><path codeLine="49" d="M332.5,111.456 C332.5,127.336 332.5,144.749 332.5,160.623 " fill="none" id="e01-e02" style="stroke:#000000;stroke-width:1.0;"/><line style="stroke:#000000;stroke-width:1.0;" x1="328.5" x2="336.5" y1="107.332" y2="107.332"/><line style="stroke:#000000;stroke-width:1.0;" x1="328.5" x2="336.5" y1="110.332" y2="110.332"/><line style="stroke:#000000;stroke-width:1.0;" x1="332.5" x2="332.5" y1="111.332" y2="103.332"/><line style="stroke:#000000;stroke-width:1.0;" x1="332.5" x2="338.5" y1="160.768" y2="168.768"/><line style="stroke:#000000;stroke-width:1.0;" x1="332.5" x2="326.5" y1="160.768" y2="168.768"/><line style="stroke:#000000;stroke-width:1.0;" x1="332.5" x2="332.5" y1="160.768" y2="168.768"/><ellipse cx="332.5" cy="154.768" fill="none" rx="4" ry="4" style="stroke:#000000;stroke-width:1.0;"/></g><!--reverse link e02 to e03--><g id="link_e02_e03"><path codeLine="51" d="M247.861,271.13 C218.461,290.453 185.768,311.941 157.4,330.586 " fill="none" id="e02-backto-e03" style="stroke:#000000;stroke-width:1.0;"/><polygon fill="none" points="244.175,265.176,264.733,260.04,251.864,276.875,244.175,265.176" style="stroke:#000000;stroke-width:1.0;"/></g><!--reverse link e02 to e04--><g id="link_e02_e04"><path codeLine="52" d="M303.895,278.508 C296.782,294.177 289.231,310.808 282.372,325.916 " fill="none" id="e02-backto-e04" style="stroke:#000000;stroke-width:1.0;"/><polygon fill="none" points="297.638,275.358,312.279,260.04,310.385,281.145,297.638,275.358" style="stroke:#000000;stroke-width:1.0;"/></g><!--reverse link e02 to e05--><g id="link_e02_e05"><path codeLine="53" d="M361.009,278.298 C372.225,303.002 384.54,330.129 393.526,349.921 " fill="none" id="e02-backto-e05" style="stroke:#000000;stroke-width:1.0;"/><polygon fill="none" points="354.615,281.145,352.721,260.04,367.362,275.358,354.615,281.145" style="stroke:#000000;stroke-width:1.0;"/></g><!--reverse link e02 to e06--><g id="link_e02_e06"><path codeLine="54" d="M405.244,272.506 C434.682,295.575 467.803,321.531 493.902,341.9831 " fill="none" id="e02-backto-e06" style="stroke:#000000;stroke-width:1.0;"/><polygon fill="none" points="400.761,277.887,389.337,260.04,409.397,266.867,400.761,277.887" style="stroke:#000000;stroke-width:1.0;"/></g><!--SRC=[TP5DQiCm48NtEiKqcqB0qAI95o6xqWEKbcw3R0tE45iIqfWs9BrxnwwDvJRT2BsFuRtvkUCZDWY-rcILkeSZ6GHX4BrZrQkIGbcZKl54rkkW6x3EO4GFgsq2WxQd3kQvKcYP-0oBTmoCdmlG4V1X1HS5i2G3Ex1jKs0GcMNorBh0MgZKiaWnBmDv9cT7-3LvFfiA1yVrZsCCvM7kklJ1USa-2q-nYJohJ6oVd0k6hERH_B4t7_gJcjPWObKxM_rcFc19KRfEM5Mx0jCkaiYNLlU_8N0p1Uh6jPPdSHyO3eNGT9xM-rlK4l-J-Cg1R3NaRQUysFE_ktwZPbn7FbMpq1qOMTMX-zwSl3EHYr-lMUOktQawlOQzw6wtgTYaOfkA_1i0]--></g></svg>