<svg xmlns="http://www.w3.org/2000/svg" xmlns:xlink="http://www.w3.org/1999/xlink" version="1.1" viewBox="0 0 342.249 210.841">
<defs>
<clipPath id="clip_0">
<path transform="matrix(1,0,0,-1,68.079,182.138)" d="M-24.90811 0H273.9743V181.94107H-24.90811Z"/>
</clipPath>
</defs>
<path transform="matrix(1,0,0,-1,68.079,182.138)" stroke-width=".3985" stroke-linecap="butt" stroke-dasharray="2.98883,2.98883" stroke-miterlimit="10" stroke-linejoin="miter" fill="none" stroke="#cbcbcb" d="M-24.90811 0H273.9743M-24.90811 29.11057H273.9743M-24.90811 58.22113H273.9743M-24.90811 87.33171H273.9743M-24.90811 116.44228H273.9743M-24.90811 145.55286H273.9743M-24.90811 174.66342H273.9743"/>
<path transform="matrix(1,0,0,-1,68.079,182.138)" stroke-width=".19925" stroke-linecap="butt" stroke-miterlimit="10" stroke-linejoin="miter" fill="none" stroke="#929292" d="M0 0V4.2523M31.13327 0V4.2523M62.26654 0V4.2523M93.39981 0V4.2523M124.53308 0V4.2523M155.66635 0V4.2523M186.79962 0V4.2523M217.93289 0V4.2523M249.06616 0V4.2523M0 181.94107V177.68874M31.13327 181.94107V177.68874M62.26654 181.94107V177.68874M93.39981 181.94107V177.68874M124.53308 181.94107V177.68874M155.66635 181.94107V177.68874M186.79962 181.94107V177.68874M217.93289 181.94107V177.68874M249.06616 181.94107V177.68874"/>
<path transform="matrix(1,0,0,-1,68.079,182.138)" stroke-width=".19925" stroke-linecap="butt" stroke-miterlimit="10" stroke-linejoin="miter" fill="none" stroke="#929292" d="M-24.90811 0H-20.65535M-24.90811 29.11057H-20.65535M-24.90811 58.22113H-20.65535M-24.90811 87.33171H-20.65535M-24.90811 116.44228H-20.65535M-24.90811 145.55286H-20.65535M-24.90811 174.66342H-20.65535M273.9743 0H269.72154M273.9743 29.11057H269.72154M273.9743 58.22113H269.72154M273.9743 87.33171H269.72154M273.9743 116.44228H269.72154M273.9743 145.55286H269.72154M273.9743 174.66342H269.72154"/>
<path transform="matrix(1,0,0,-1,68.079,182.138)" stroke-width=".3985" stroke-linecap="butt" stroke-miterlimit="10" stroke-linejoin="miter" fill="none" stroke="#000000" d="M-24.90811 0V181.94107H273.9743V0H-24.90811Z"/>
<text xml:space="preserve" transform="matrix(1 0 -0 1 0 210.841)" font-size="8.9664" font-family="CMR9"><tspan y="-19.405" x="59.887">0</tspan></text>
<text xml:space="preserve" transform="matrix(1 0 -0 1 0 210.841)" font-size="8.9664" font-family="CMMI9" font-style="italic"><tspan y="-19.405" x="64.495">.</tspan></text>
<text xml:space="preserve" transform="matrix(1 0 -0 1 0 210.841)" font-size="8.9664" font-family="CMR9"><tspan y="-19.405" x="67.055 71.66373">25</tspan></text>
<text xml:space="preserve" transform="matrix(1 0 -0 1 .0000076293949 210.841)" font-size="8.9664" font-family="CMR9"><tspan y="-19.405" x="93.324">0</tspan></text>
<text xml:space="preserve" transform="matrix(1 0 -0 1 .0000076293949 210.841)" font-size="8.9664" font-family="CMMI9" font-style="italic"><tspan y="-19.405" x="97.932">.</tspan></text>
<text xml:space="preserve" transform="matrix(1 0 -0 1 .0000076293949 210.841)" font-size="8.9664" font-family="CMR9"><tspan y="-19.405" x="100.492">5</tspan></text>
<text xml:space="preserve" transform="matrix(1 0 -0 1 0 210.841)" font-size="8.9664" font-family="CMR9"><tspan y="-19.405" x="122.153">0</tspan></text>
<text xml:space="preserve" transform="matrix(1 0 -0 1 0 210.841)" font-size="8.9664" font-family="CMMI9" font-style="italic"><tspan y="-19.405" x="126.761">.</tspan></text>
<text xml:space="preserve" transform="matrix(1 0 -0 1 0 210.841)" font-size="8.9664" font-family="CMR9"><tspan y="-19.405" x="129.321 133.92974">75</tspan></text>
<text xml:space="preserve" transform="matrix(1 0 -0 1 .000015258789 210.841)" font-size="8.9664" font-family="CMR9"><tspan y="-19.405" x="159.174">1</tspan></text>
<text xml:space="preserve" transform="matrix(1 0 -0 1 0 210.841)" font-size="8.9664" font-family="CMR9"><tspan y="-19.405" x="184.419">1</tspan></text>
<text xml:space="preserve" transform="matrix(1 0 -0 1 0 210.841)" font-size="8.9664" font-family="CMMI9" font-style="italic"><tspan y="-19.405" x="189.02701">.</tspan></text>
<text xml:space="preserve" transform="matrix(1 0 -0 1 0 210.841)" font-size="8.9664" font-family="CMR9"><tspan y="-19.405" x="191.58602 196.19475">25</tspan></text>
<text xml:space="preserve" transform="matrix(1 0 -0 1 -.000015258789 210.841)" font-size="8.9664" font-family="CMR9"><tspan y="-19.405" x="217.856">1</tspan></text>
<text xml:space="preserve" transform="matrix(1 0 -0 1 -.000015258789 210.841)" font-size="8.9664" font-family="CMMI9" font-style="italic"><tspan y="-19.405" x="222.463">.</tspan></text>
<text xml:space="preserve" transform="matrix(1 0 -0 1 -.000015258789 210.841)" font-size="8.9664" font-family="CMR9"><tspan y="-19.405" x="225.023">5</tspan></text>
<text xml:space="preserve" transform="matrix(1 0 -0 1 0 210.841)" font-size="8.9664" font-family="CMR9"><tspan y="-19.405" x="246.685">1</tspan></text>
<text xml:space="preserve" transform="matrix(1 0 -0 1 0 210.841)" font-size="8.9664" font-family="CMMI9" font-style="italic"><tspan y="-19.405" x="251.29199">.</tspan></text>
<text xml:space="preserve" transform="matrix(1 0 -0 1 0 210.841)" font-size="8.9664" font-family="CMR9"><tspan y="-19.405" x="253.85199 258.46073">75</tspan></text>
<text xml:space="preserve" transform="matrix(1 0 -0 1 .000030517579 210.841)" font-size="8.9664" font-family="CMR9"><tspan y="-19.405" x="283.705">2</tspan></text>
<text xml:space="preserve" transform="matrix(1 0 -0 1 0 210.841)" font-size="8.9664" font-family="CMR9"><tspan y="-19.405" x="308.95">2</tspan></text>
<text xml:space="preserve" transform="matrix(1 0 -0 1 0 210.841)" font-size="8.9664" font-family="CMMI9" font-style="italic"><tspan y="-19.405" x="313.558">.</tspan></text>
<text xml:space="preserve" transform="matrix(1 0 -0 1 0 210.841)" font-size="8.9664" font-family="CMR9"><tspan y="-19.405" x="316.118 320.72676">25</tspan></text>
<text xml:space="preserve" transform="matrix(1 0 -0 1 0 210.841)" font-size="8.9664" font-family="CMSY9" font-style="italic"><tspan y="-4.947" x="325.924">&#x00b7;</tspan></text>
<text xml:space="preserve" transform="matrix(1 0 -0 1 0 210.841)" font-size="8.9664" font-family="CMR9"><tspan y="-4.947" x="328.484 333.09275">10</tspan></text>
<text xml:space="preserve" transform="matrix(1 0 -0 1 0 210.841)" font-size="5.9776" font-family="CMR6"><tspan y="-8.7560009" x="337.699">6</tspan></text>
<text xml:space="preserve" transform="matrix(1 0 -0 1 .0000038146974 210.841)" font-size="8.9664" font-family="CMR9"><tspan y="-25.814" x="35.044">0</tspan></text>
<text xml:space="preserve" transform="matrix(1 0 -0 1 0 210.84099)" font-size="8.9664" font-family="CMR9"><tspan y="-54.924" x="30.436 35.04473">20</tspan></text>
<text xml:space="preserve" transform="matrix(1 0 -0 1 0 210.841)" font-size="8.9664" font-family="CMR9"><tspan y="-84.034" x="30.436 35.04473">40</tspan></text>
<text xml:space="preserve" transform="matrix(1 0 -0 1 0 210.841)" font-size="8.9664" font-family="CMR9"><tspan y="-113.144" x="30.436 35.04473">60</tspan></text>
<text xml:space="preserve" transform="matrix(1 0 -0 1 0 210.841)" font-size="8.9664" font-family="CMR9"><tspan y="-142.255" x="30.436 35.04473">80</tspan></text>
<text xml:space="preserve" transform="matrix(1 0 -0 1 .0000038146974 210.841)" font-size="8.9664" font-family="CMR9"><tspan y="-171.365" x="25.828 30.43673 35.04546">100</tspan></text>
<text xml:space="preserve" transform="matrix(1 0 -0 1 .0000038146974 210.841)" font-size="8.9664" font-family="CMR9"><tspan y="-200.475" x="25.828 30.43673 35.04546">120</tspan></text>
<g clip-path="url(#clip_0)">
<path transform="matrix(1,0,0,-1,68.079,182.138)" stroke-width=".3985" stroke-linecap="butt" stroke-miterlimit="10" stroke-linejoin="miter" fill="none" stroke="#0000ff" d="M0 10.1339 31.13327 26.24667 62.26654 44.68965 93.39981 59.5519 124.53308 75.64363 155.66635 94.21399 186.79962 121.22536 217.93289 149.8021 249.06616 179.68579"/>
</g>
<path transform="matrix(1,0,0,-1,68.079,182.138)" stroke-width=".3985" stroke-linecap="butt" stroke-miterlimit="10" stroke-linejoin="miter" fill="none" stroke="#0000ff" d="M-1.99255 8.14134H1.99255V12.12644H-1.99255Z"/>
<path transform="matrix(1,0,0,-1,68.079,182.138)" stroke-width=".3985" stroke-linecap="butt" stroke-miterlimit="10" stroke-linejoin="miter" fill="none" stroke="#0000ff" d="M29.14072 24.25412H33.12582V28.23922H29.14072Z"/>
<path transform="matrix(1,0,0,-1,68.079,182.138)" stroke-width=".3985" stroke-linecap="butt" stroke-miterlimit="10" stroke-linejoin="miter" fill="none" stroke="#0000ff" d="M60.27399 42.6971H64.259098V46.6822H60.27399Z"/>
<path transform="matrix(1,0,0,-1,68.079,182.138)" stroke-width=".3985" stroke-linecap="butt" stroke-miterlimit="10" stroke-linejoin="miter" fill="none" stroke="#0000ff" d="M91.40726 57.55934H95.39236V61.54444H91.40726Z"/>
<path transform="matrix(1,0,0,-1,68.079,182.138)" stroke-width=".3985" stroke-linecap="butt" stroke-miterlimit="10" stroke-linejoin="miter" fill="none" stroke="#0000ff" d="M122.54053 73.65108H126.52563V77.63618H122.54053Z"/>
<path transform="matrix(1,0,0,-1,68.079,182.138)" stroke-width=".3985" stroke-linecap="butt" stroke-miterlimit="10" stroke-linejoin="miter" fill="none" stroke="#0000ff" d="M153.6738 92.22144H157.6589V96.20654H153.6738Z"/>
<path transform="matrix(1,0,0,-1,68.079,182.138)" stroke-width=".3985" stroke-linecap="butt" stroke-miterlimit="10" stroke-linejoin="miter" fill="none" stroke="#0000ff" d="M184.80707 119.2328H188.79218V123.2179H184.80707Z"/>
<path transform="matrix(1,0,0,-1,68.079,182.138)" stroke-width=".3985" stroke-linecap="butt" stroke-miterlimit="10" stroke-linejoin="miter" fill="none" stroke="#0000ff" d="M215.94034 147.80954H219.92545V151.79465H215.94034Z"/>
<path transform="matrix(1,0,0,-1,68.079,182.138)" stroke-width=".3985" stroke-linecap="butt" stroke-miterlimit="10" stroke-linejoin="miter" fill="none" stroke="#0000ff" d="M247.07361 177.69324H251.05872V181.67835H247.07361Z"/>
<path transform="matrix(1,0,0,-1,68.079,182.138)" stroke-width=".3985" stroke-linecap="butt" stroke-miterlimit="10" stroke-linejoin="miter" fill="none" stroke="#0000ff" d=""/>
<text xml:space="preserve" transform="matrix(1 0 -0 1 0 210.841)" font-size="9.9626" font-family="CMR10"><tspan y="-3.321" x="130.164 137.63596 143.17516 151.19506 157.0132 161.4366 168.65949 173.64078 180.01685 190.25839 193.028 198.28826 201.05786 206.5871 211.56839 215.44385 223.75266 228.17606 233.43631 237.31177 240.08138 243.95684 246.72644 251.14984">NumberofWikidataentities</tspan></text>
<text xml:space="preserve" transform="matrix(0 -1 1 0 66.995 165.432)" font-size="9.9626" font-family="CMR10"><tspan y="-56.202" x="10.793 17.985999 20.755602 29.054448 36.795389 40.670839 48.979646 53.403039 57.308378 61.73177 66.713069 70.58852 78.32945 82.2049 87.74411 95.48505 99.42027 104.94952 110.48872 114.41399 118.84734 126.04034 129.91579 133.84105">Timetocreatethesubset(s)</tspan></text>
</svg>
