<svg xmlns="http://www.w3.org/2000/svg" xmlns:xlink="http://www.w3.org/1999/xlink" version="1.1" width="175.457pt" height="144.765pt" viewBox="0 0 175.457 144.765">
<path transform="matrix(1,0,0,-1,97.588,23.572999)" d="M11.0201 2.39102C11.0201 8.47733 6.0863 13.41112 0 13.41112-6.0863 13.41112-11.0201 8.47733-11.0201 2.39102-11.0201-3.69527-6.0863-8.62906 0-8.62906 6.0863-8.62906 11.0201-3.69527 11.0201 2.39102ZM0 2.39102" fill="#ffffff"/>
<path transform="matrix(1,0,0,-1,97.588,23.572999)" stroke-width=".3985" stroke-linecap="butt" stroke-miterlimit="10" stroke-linejoin="miter" fill="none" stroke="#000000" d="M11.0201 2.39102C11.0201 8.47733 6.0863 13.41112 0 13.41112-6.0863 13.41112-11.0201 8.47733-11.0201 2.39102-11.0201-3.69527-6.0863-8.62906 0-8.62906 6.0863-8.62906 11.0201-3.69527 11.0201 2.39102ZM0 2.39102"/>
<text xml:space="preserve" transform="matrix(1 0 -0 1 -.0000076293949 144.765)" font-size="9.9626" font-family="CMMI10" font-style="italic"><tspan y="-121.192" x="94.954">a</tspan></text>
<path transform="matrix(1,0,0,-1,55.468999,57.450998)" d="M10.77078 2.39102C10.77078 8.33963 5.94861 13.1618 0 13.1618-5.94861 13.1618-10.77078 8.33963-10.77078 2.39102-10.77078-3.55757-5.94861-8.37975 0-8.37975 5.94861-8.37975 10.77078-3.55757 10.77078 2.39102ZM0 2.39102" fill="#ffffff"/>
<path transform="matrix(1,0,0,-1,55.468999,57.450998)" stroke-width=".3985" stroke-linecap="butt" stroke-miterlimit="10" stroke-linejoin="miter" fill="none" stroke="#000000" d="M10.77078 2.39102C10.77078 8.33963 5.94861 13.1618 0 13.1618-5.94861 13.1618-10.77078 8.33963-10.77078 2.39102-10.77078-3.55757-5.94861-8.37975 0-8.37975 5.94861-8.37975 10.77078-3.55757 10.77078 2.39102ZM0 2.39102"/>
<text xml:space="preserve" transform="matrix(1 0 -0 1 .000995636 144.765)" font-size="9.9626" font-family="CMMI10" font-style="italic"><tspan y="-87.314" x="53.33">b</tspan></text>
<path transform="matrix(1,0,0,-1,32.296998,91.328998)" d="M11.0201 2.39102C11.0201 8.47733 6.0863 13.41112 0 13.41112-6.0863 13.41112-11.0201 8.47733-11.0201 2.39102-11.0201-3.69527-6.0863-8.62906 0-8.62906 6.0863-8.62906 11.0201-3.69527 11.0201 2.39102ZM0 2.39102" fill="#ffffff"/>
<path transform="matrix(1,0,0,-1,32.296998,91.328998)" stroke-width=".3985" stroke-linecap="butt" stroke-miterlimit="10" stroke-linejoin="miter" fill="none" stroke="#000000" d="M11.0201 2.39102C11.0201 8.47733 6.0863 13.41112 0 13.41112-6.0863 13.41112-11.0201 8.47733-11.0201 2.39102-11.0201-3.69527-6.0863-8.62906 0-8.62906 6.0863-8.62906 11.0201-3.69527 11.0201 2.39102ZM0 2.39102"/>
<text xml:space="preserve" transform="matrix(1 0 -0 1 -.0000019073487 144.765)" font-size="9.9626" font-family="CMMI10" font-style="italic"><tspan y="-53.436" x="29.705">d</tspan></text>
<path transform="matrix(1,0,0,-1,21.336998,125.612)" d="M11.17528 2.39102C11.17528 8.56302 6.172 13.5663 0 13.5663-6.172 13.5663-11.17528 8.56302-11.17528 2.39102-11.17528-3.78096-6.172-8.78424 0-8.78424 6.172-8.78424 11.17528-3.78096 11.17528 2.39102ZM0 2.39102" fill="#ffffff"/>
<path transform="matrix(1,0,0,-1,21.336998,125.612)" stroke-width=".3985" stroke-linecap="butt" stroke-miterlimit="10" stroke-linejoin="miter" fill="none" stroke="#000000" d="M11.17528 2.39102C11.17528 8.56302 6.172 13.5663 0 13.5663-6.172 13.5663-11.17528 8.56302-11.17528 2.39102-11.17528-3.78096-6.172-8.78424 0-8.78424 6.172-8.78424 11.17528-3.78096 11.17528 2.39102ZM0 2.39102"/>
<text xml:space="preserve" transform="matrix(1 0 -0 1 0 144.765)" font-size="9.9626" font-family="CMMI10" font-style="italic"><tspan y="-19.153" x="18.467">h</tspan></text>
<path transform="matrix(1,0,0,-1,78.638,91.328998)" d="M10.86905 2.39102C10.86905 8.3939 6.00287 13.26007 0 13.26007-6.00287 13.26007-10.86905 8.3939-10.86905 2.39102-10.86905-3.61185-6.00287-8.47801 0-8.47801 6.00287-8.47801 10.86905-3.61185 10.86905 2.39102ZM0 2.39102" fill="#ffffff"/>
<path transform="matrix(1,0,0,-1,78.638,91.328998)" stroke-width=".3985" stroke-linecap="butt" stroke-miterlimit="10" stroke-linejoin="miter" fill="none" stroke="#000000" d="M10.86905 2.39102C10.86905 8.3939 6.00287 13.26007 0 13.26007-6.00287 13.26007-10.86905 8.3939-10.86905 2.39102-10.86905-3.61185-6.00287-8.47801 0-8.47801 6.00287-8.47801 10.86905-3.61185 10.86905 2.39102ZM0 2.39102"/>
<text xml:space="preserve" transform="matrix(1 0 -0 1 0 144.765)" font-size="9.9626" font-family="CMMI10" font-style="italic"><tspan y="-53.436" x="76.319">e</tspan></text>
<path transform="matrix(1,0,0,-1,64.394,125.154)" d="M10.57912 2.39102C10.57912 8.23378 5.84276 12.97014 0 12.97014-5.84276 12.97014-10.57912 8.23378-10.57912 2.39102-10.57912-3.45172-5.84276-8.18808 0-8.18808 5.84276-8.18808 10.57912-3.45172 10.57912 2.39102ZM0 2.39102" fill="#ffffff"/>
<path transform="matrix(1,0,0,-1,64.394,125.154)" stroke-width=".3985" stroke-linecap="butt" stroke-miterlimit="10" stroke-linejoin="miter" fill="none" stroke="#000000" d="M10.57912 2.39102C10.57912 8.23378 5.84276 12.97014 0 12.97014-5.84276 12.97014-10.57912 8.23378-10.57912 2.39102-10.57912-3.45172-5.84276-8.18808 0-8.18808 5.84276-8.18808 10.57912-3.45172 10.57912 2.39102ZM0 2.39102"/>
<text xml:space="preserve" transform="matrix(1 0 -0 1 -.0000038146974 144.765)" font-size="9.9626" font-family="CMMI10" font-style="italic"><tspan y="-19.611" x="62.678">i</tspan></text>
<path transform="matrix(1,0,0,-1,92.881999,125.154)" d="M10.86905 2.39102C10.86905 8.3939 6.00287 13.26007 0 13.26007-6.00287 13.26007-10.86905 8.3939-10.86905 2.39102-10.86905-3.61185-6.00287-8.47801 0-8.47801 6.00287-8.47801 10.86905-3.61185 10.86905 2.39102ZM0 2.39102" fill="#ffffff"/>
<path transform="matrix(1,0,0,-1,92.881999,125.154)" stroke-width=".3985" stroke-linecap="butt" stroke-miterlimit="10" stroke-linejoin="miter" fill="none" stroke="#000000" d="M10.86905 2.39102C10.86905 8.3939 6.00287 13.26007 0 13.26007-6.00287 13.26007-10.86905 8.3939-10.86905 2.39102-10.86905-3.61185-6.00287-8.47801 0-8.47801 6.00287-8.47801 10.86905-3.61185 10.86905 2.39102ZM0 2.39102"/>
<text xml:space="preserve" transform="matrix(1 0 -0 1 0 144.765)" font-size="9.9626" font-family="CMMI10" font-style="italic"><tspan y="-19.611" x="90.545">j</tspan></text>
<path transform="matrix(1,0,0,-1,139.707,57.450998)" d="M10.77078 2.39102C10.77078 8.33963 5.94861 13.1618 0 13.1618-5.94861 13.1618-10.77078 8.33963-10.77078 2.39102-10.77078-3.55757-5.94861-8.37975 0-8.37975 5.94861-8.37975 10.77078-3.55757 10.77078 2.39102ZM0 2.39102" fill="#ffffff"/>
<path transform="matrix(1,0,0,-1,139.707,57.450998)" stroke-width=".3985" stroke-linecap="butt" stroke-miterlimit="10" stroke-linejoin="miter" fill="none" stroke="#000000" d="M10.77078 2.39102C10.77078 8.33963 5.94861 13.1618 0 13.1618-5.94861 13.1618-10.77078 8.33963-10.77078 2.39102-10.77078-3.55757-5.94861-8.37975 0-8.37975 5.94861-8.37975 10.77078-3.55757 10.77078 2.39102ZM0 2.39102"/>
<text xml:space="preserve" transform="matrix(1 0 -0 1 0 144.765)" font-size="9.9626" font-family="CMMI10" font-style="italic"><tspan y="-87.314" x="137.552">c</tspan></text>
<path transform="matrix(1,0,0,-1,125.089,91.536998)" d="M11.22781 2.39102C11.22781 8.59204 6.20102 13.61884 0 13.61884-6.20102 13.61884-11.22781 8.59204-11.22781 2.39102-11.22781-3.80998-6.20102-8.83678 0-8.83678 6.20102-8.83678 11.22781-3.80998 11.22781 2.39102ZM0 2.39102" fill="#ffffff"/>
<path transform="matrix(1,0,0,-1,125.089,91.536998)" stroke-width=".3985" stroke-linecap="butt" stroke-miterlimit="10" stroke-linejoin="miter" fill="none" stroke="#000000" d="M11.22781 2.39102C11.22781 8.59204 6.20102 13.61884 0 13.61884-6.20102 13.61884-11.22781 8.59204-11.22781 2.39102-11.22781-3.80998-6.20102-8.83678 0-8.83678 6.20102-8.83678 11.22781-3.80998 11.22781 2.39102ZM0 2.39102"/>
<text xml:space="preserve" transform="matrix(1 0 -0 1 0 144.765)" font-size="9.9626" font-family="CMMI10" font-style="italic"><tspan y="-53.228" x="122.114">f</tspan></text>
<path transform="matrix(1,0,0,-1,135.998,125.923)" d="M11.07117 2.39102C11.07117 8.50552 6.1145 13.46219 0 13.46219-6.1145 13.46219-11.07117 8.50552-11.07117 2.39102-11.07117-3.72348-6.1145-8.68015 0-8.68015 6.1145-8.68015 11.07117-3.72348 11.07117 2.39102ZM0 2.39102" fill="#ffffff"/>
<path transform="matrix(1,0,0,-1,135.998,125.923)" stroke-width=".3985" stroke-linecap="butt" stroke-miterlimit="10" stroke-linejoin="miter" fill="none" stroke="#000000" d="M11.07117 2.39102C11.07117 8.50552 6.1145 13.46219 0 13.46219-6.1145 13.46219-11.07117 8.50552-11.07117 2.39102-11.07117-3.72348-6.1145-8.68015 0-8.68015 6.1145-8.68015 11.07117-3.72348 11.07117 2.39102ZM0 2.39102"/>
<text xml:space="preserve" transform="matrix(1 0 -0 1 0 144.765)" font-size="9.9626" font-family="CMMI10" font-style="italic"><tspan y="-18.842" x="133.247">k</tspan></text>
<path transform="matrix(1,0,0,-1,154.327,91.536998)" d="M10.96925 2.39102C10.96925 8.44925 6.05823 13.36028 0 13.36028-6.05823 13.36028-10.96925 8.44925-10.96925 2.39102-10.96925-3.66719-6.05823-8.57823 0-8.57823 6.05823-8.57823 10.96925-3.66719 10.96925 2.39102ZM0 2.39102" fill="#ffffff"/>
<path transform="matrix(1,0,0,-1,154.327,91.536998)" stroke-width=".3985" stroke-linecap="butt" stroke-miterlimit="10" stroke-linejoin="miter" fill="none" stroke="#000000" d="M10.96925 2.39102C10.96925 8.44925 6.05823 13.36028 0 13.36028-6.05823 13.36028-10.96925 8.44925-10.96925 2.39102-10.96925-3.66719-6.05823-8.57823 0-8.57823 6.05823-8.57823 10.96925-3.66719 10.96925 2.39102ZM0 2.39102"/>
<text xml:space="preserve" transform="matrix(1 0 -0 1 .0010070801 144.765)" font-size="9.9626" font-family="CMMI10" font-style="italic"><tspan y="-53.228" x="151.771">g</tspan></text>
<path transform="matrix(1,0,0,-1,97.588,23.572999)" stroke-width=".3985" stroke-linecap="butt" stroke-miterlimit="10" stroke-linejoin="miter" fill="none" stroke="#000000" d="M-8.74182-4.6404-30.77812-22.36482"/>
<path transform="matrix(-.77917,.62672,.62672,.77917,66.809879,45.937799)" d="M3.58653 0C2.52383 .19925 .797 .797-.3985 1.49438V-1.49438C.797-.797 2.52383-.19925 3.58653 0"/>
<path transform="matrix(1,0,0,-1,97.588,23.572999)" stroke-width=".3985" stroke-linecap="butt" stroke-miterlimit="10" stroke-linejoin="miter" fill="none" stroke="#000000" d="M-48.31296-40.54185-56.9333-53.14586"/>
<path transform="matrix(-.5645,.82536,.82536,.5645,40.65471,76.71886)" d="M3.58653 0C2.52383 .19925 .797 .797-.3985 1.49438V-1.49438C.797-.797 2.52383-.19925 3.58653 0"/>
<path transform="matrix(1,0,0,-1,97.588,23.572999)" stroke-width=".3985" stroke-linecap="butt" stroke-miterlimit="10" stroke-linejoin="miter" fill="none" stroke="#000000" d="M-68.70735-76.05232-71.69577-85.39944"/>
<path transform="matrix(-.3045,.95247,.95247,.3045,25.892228,108.972438)" d="M3.58653 0C2.52383 .19925 .797 .797-.3985 1.49438V-1.49438C.797-.797 2.52383-.19925 3.58653 0"/>
<path transform="matrix(1,0,0,-1,97.588,23.572999)" stroke-width=".3985" stroke-linecap="butt" stroke-miterlimit="10" stroke-linejoin="miter" fill="none" stroke="#000000" d="M-35.92798-40.54202-27.22221-53.27054"/>
<path transform="matrix(.5645,.82536,.82536,-.5645,70.36577,76.84354)" d="M3.58653 0C2.52383 .19925 .797 .797-.3985 1.49438V-1.49438C.797-.797 2.52383-.19925 3.58653 0"/>
<path transform="matrix(1,0,0,-1,97.588,23.572999)" stroke-width=".3985" stroke-linecap="butt" stroke-miterlimit="10" stroke-linejoin="miter" fill="none" stroke="#000000" d="M-23.24495-75.56662-27.61917-85.95364"/>
<path transform="matrix(-.38808,.92159,.92159,.38808,69.96883,109.52663)" d="M3.58653 0C2.52383 .19925 .797 .797-.3985 1.49438V-1.49438C.797-.797 2.52383-.19925 3.58653 0"/>
<path transform="matrix(1,0,0,-1,97.588,23.572999)" stroke-width=".3985" stroke-linecap="butt" stroke-miterlimit="10" stroke-linejoin="miter" fill="none" stroke="#000000" d="M-14.6546-75.56662-10.39288-85.68645"/>
<path transform="matrix(.38808,.92159,.92159,-.38808,87.195117,109.25943)" d="M3.58653 0C2.52383 .19925 .797 .797-.3985 1.49438V-1.49438C.797-.797 2.52383-.19925 3.58653 0"/>
<path transform="matrix(1,0,0,-1,97.588,23.572999)" stroke-width=".3985" stroke-linecap="butt" stroke-miterlimit="10" stroke-linejoin="miter" fill="none" stroke="#000000" d="M8.74182-4.6404 30.77812-22.36482"/>
<path transform="matrix(.77917,.62672,.62672,-.77917,128.36612,45.937799)" d="M3.58653 0C2.52383 .19925 .797 .797-.3985 1.49438V-1.49438C.797-.797 2.52383-.19925 3.58653 0"/>
<path transform="matrix(1,0,0,-1,97.588,23.572999)" stroke-width=".3985" stroke-linecap="butt" stroke-miterlimit="10" stroke-linejoin="miter" fill="none" stroke="#000000" d="M37.7969-41.56914 33.41916-51.77638"/>
<path transform="matrix(-.39412,.919,.919,.39412,131.00717,75.349369)" d="M3.58653 0C2.52383 .19925 .797 .797-.3985 1.49438V-1.49438C.797-.797 2.52383-.19925 3.58653 0"/>
<path transform="matrix(1,0,0,-1,97.588,23.572999)" stroke-width=".3985" stroke-linecap="butt" stroke-miterlimit="10" stroke-linejoin="miter" fill="none" stroke="#000000" d="M30.95703-76.46556 33.91838-85.79996"/>
<path transform="matrix(.30237,.95314,.95314,-.30237,131.50638,109.37294)" d="M3.58653 0C2.52383 .19925 .797 .797-.3985 1.49438V-1.49438C.797-.797 2.52383-.19925 3.58653 0"/>
<path transform="matrix(1,0,0,-1,97.588,23.572999)" stroke-width=".3985" stroke-linecap="butt" stroke-miterlimit="10" stroke-linejoin="miter" fill="none" stroke="#000000" d="M46.44388-41.56914 50.92352-52.014"/>
<path transform="matrix(.39412,.919,.919,-.39412,148.5115,75.58699)" d="M3.58653 0C2.52383 .19925 .797 .797-.3985 1.49438V-1.49438C.797-.797 2.52383-.19925 3.58653 0"/>
<path transform="matrix(1,0,0,-1,97.588,23.572999)" stroke-width=".79701" stroke-linecap="butt" stroke-dasharray="2.98883,2.98883" stroke-miterlimit="10" stroke-linejoin="miter" fill="none" stroke="#0000ff" d="M27.71979-96.39435-53.89276-69.16866"/>
<path transform="matrix(-.94856,-.31644,-.31644,.94856,43.31725,92.615558)" stroke-width=".79701" stroke-linecap="round" stroke-linejoin="round" fill="none" stroke="#0000ff" d="M-2.55046 3.11095C-2.0845 1.24435-1.04614 .36295 0 0-1.04614-.36295-2.0845-1.24435-2.55046-3.11095"/>
<path transform="matrix(1,0,0,-1,97.588,23.572999)" stroke-width=".79701" stroke-linecap="butt" stroke-dasharray="2.98883,2.98883" stroke-miterlimit="10" stroke-linejoin="miter" fill="none" stroke="#0000ff" d="M6.36055-99.38937 26.34508-99.74585"/>
<path transform="matrix(.99983,.01782,.01782,-.99983,124.33152,123.325939)" stroke-width=".79701" stroke-linecap="round" stroke-linejoin="round" fill="none" stroke="#0000ff" d="M-2.55046 3.11095C-2.0845 1.24435-1.04614 .36295 0 0-1.04614-.36295-2.0845-1.24435-2.55046-3.11095"/>
<path transform="matrix(1,0,0,-1,97.588,23.572999)" stroke-width=".79701" stroke-linecap="butt" stroke-dasharray="2.98883,2.98883" stroke-miterlimit="10" stroke-linejoin="miter" fill="none" stroke="#0000ff" d="M-22.41531-99.19211H-16.57118"/>
<path transform="matrix(1,0,0,-1,81.41531,122.76511)" stroke-width=".79701" stroke-linecap="round" stroke-linejoin="round" fill="none" stroke="#0000ff" d="M-2.55046 3.11095C-2.0845 1.24435-1.04614 .36295 0 0-1.04614-.36295-2.0845-1.24435-2.55046-3.11095"/>
<path transform="matrix(1,0,0,-1,97.588,23.572999)" stroke-width=".79701" stroke-linecap="butt" stroke-dasharray="2.98883,2.98883" stroke-miterlimit="10" stroke-linejoin="miter" fill="none" stroke="#0000ff" d="M-64.87816-99.5286-44.7678-99.31502"/>
<path transform="matrix(.9999,-.01062,-.01062,-.9999,53.218648,122.88379)" stroke-width=".79701" stroke-linecap="round" stroke-linejoin="round" fill="none" stroke="#0000ff" d="M-2.55046 3.11095C-2.0845 1.24435-1.04614 .36295 0 0-1.04614-.36295-2.0845-1.24435-2.55046-3.11095"/>
<path transform="matrix(1,0,0,-1,97.588,23.572999)" stroke-width=".79701" stroke-linecap="butt" stroke-dasharray="2.98883,2.98883" stroke-miterlimit="10" stroke-linejoin="miter" fill="none" stroke="#0000ff" d="M38.9291-65.57397H44.77322"/>
<path transform="matrix(1,0,0,-1,142.75972,89.146968)" stroke-width=".79701" stroke-linecap="round" stroke-linejoin="round" fill="none" stroke="#0000ff" d="M-2.55046 3.11095C-2.0845 1.24435-1.04614 .36295 0 0-1.04614-.36295-2.0845-1.24435-2.55046-3.11095"/>
<path transform="matrix(1,0,0,-1,97.588,23.572999)" stroke-width=".79701" stroke-linecap="butt" stroke-dasharray="2.98883,2.98883" stroke-miterlimit="10" stroke-linejoin="miter" fill="none" stroke="#0000ff" d="M-7.88199-65.4159 15.27853-65.51952"/>
<path transform="matrix(.99995,.00446,.00446,-.99995,113.265018,89.09429)" stroke-width=".79701" stroke-linecap="round" stroke-linejoin="round" fill="none" stroke="#0000ff" d="M-2.55046 3.11095C-2.0845 1.24435-1.04614 .36295 0 0-1.04614-.36295-2.0845-1.24435-2.55046-3.11095"/>
<path transform="matrix(1,0,0,-1,97.588,23.572999)" stroke-width=".79701" stroke-linecap="butt" stroke-dasharray="2.98883,2.98883" stroke-miterlimit="10" stroke-linejoin="miter" fill="none" stroke="#0000ff" d="M-54.07167-65.36626H-30.8151"/>
<path transform="matrix(1,0,0,-1,67.17142,88.939258)" stroke-width=".79701" stroke-linecap="round" stroke-linejoin="round" fill="none" stroke="#0000ff" d="M-2.55046 3.11095C-2.0845 1.24435-1.04614 .36295 0 0-1.04614-.36295-2.0845-1.24435-2.55046-3.11095"/>
<path transform="matrix(1,0,0,-1,97.588,23.572999)" stroke-width=".79701" stroke-linecap="butt" stroke-dasharray="2.98883,2.98883" stroke-miterlimit="10" stroke-linejoin="miter" fill="none" stroke="#0000ff" d="M49.55972-57.01883-30.78535-34.64409"/>
<path transform="matrix(-.96329,-.26825,-.26825,.96329,66.418758,58.1102)" stroke-width=".79701" stroke-linecap="round" stroke-linejoin="round" fill="none" stroke="#0000ff" d="M-2.55046 3.11095C-2.0845 1.24435-1.04614 .36295 0 0-1.04614-.36295-2.0845-1.24435-2.55046-3.11095"/>
<path transform="matrix(1,0,0,-1,97.588,23.572999)" stroke-width=".79701" stroke-linecap="butt" stroke-dasharray="2.98883,2.98883" stroke-miterlimit="10" stroke-linejoin="miter" fill="none" stroke="#0000ff" d="M-31.15034-31.48761H30.35335"/>
<path transform="matrix(1,0,0,-1,128.33985,55.060609)" stroke-width=".79701" stroke-linecap="round" stroke-linejoin="round" fill="none" stroke="#0000ff" d="M-2.55046 3.11095C-2.0845 1.24435-1.04614 .36295 0 0-1.04614-.36295-2.0845-1.24435-2.55046-3.11095"/>
<path transform="matrix(1,0,0,-1,97.588,23.572999)" stroke-width=".79701" stroke-linecap="butt" stroke-dasharray="2.98883,2.98883" stroke-miterlimit="10" stroke-linejoin="miter" fill="none" stroke="#0000ff" d="M42.12039-20.51758 11.85957 1.9164"/>
<path transform="matrix(-.8033,-.5955,-.5955,.8033,109.12746,21.419299)" stroke-width=".79701" stroke-linecap="round" stroke-linejoin="round" fill="none" stroke="#0000ff" d="M-2.55046 3.11095C-2.0845 1.24435-1.04614 .36295 0 0-1.04614-.36295-2.0845-1.24435-2.55046-3.11095"/>
</svg>
